<svg xmlns="http://www.w3.org/2000/svg" width="106.5" height="106.5" viewBox="0 0 106.5 106.5"><defs><style>.a{fill:#77eda9;}.b{fill:#2ecc71;}.c{fill:#ec9922;}.d{fill:#ffdb70;}.e{fill:#fdbc4b;}</style></defs><g transform="translate(0)"><path class="a" d="M174.464,119.535l-1.623-.937-1.623.937c-.811.5-20.218,12.293-20.218,27.644s19.407,27.145,20.218,27.644l1.623.936,1.623-.936c.811-.5,20.218-12.293,20.218-27.644s-19.407-27.145-20.218-27.644Zm0,0" transform="translate(-119.591 -93.929)"/><path class="b" d="M277.841,147.178c0,15.351-19.407,27.145-20.218,27.644l-1.623.936V118.6l1.623.937c.811.5,20.218,12.293,20.218,27.644Zm0,0" transform="translate(-202.75 -93.928)"/><path class="b" d="M223.589,207.544l-8.424,8.487v39.251h-6.24V216.031l-8.424-8.487,4.368-4.368,4.056,3.994V196h6.24v11.17l4.056-3.994Zm0,0" transform="translate(-158.794 -155.23)"/><path class="a" d="M267.544,207.544l-8.424,8.487v39.251H256V196h3.12v11.17l4.056-3.994Zm0,0" transform="translate(-202.75 -155.23)"/><path class="c" d="M364.874,40.6l4.163-4.161-11.024-2.205L343.86,28.906l5.365,14.345,2.167,10.829,4.644-4.642a40.3,40.3,0,0,1,2.44,50.349l9.015,8.792A52.141,52.141,0,0,0,364.874,40.6Zm0,0" transform="translate(-272.334 -22.893)"/><path class="d" d="M176.568,358.9l-2.185,11.046-2.246,10.982-4.119-4.118A52.276,52.276,0,0,1,100,379.428l8.8-9.048a40.306,40.306,0,0,0,50.359-2.434l-4.618-4.618,10.8-2.184Zm0,0" transform="translate(-79.199 -284.244)"/><path class="d" d="M300.119,358.9l-2.185,11.046-2.246,10.982-4.119-4.118A53.237,53.237,0,0,1,256,390.744V378.056a40.263,40.263,0,0,0,26.709-10.11l-4.618-4.618,10.8-2.184Zm0,0" transform="translate(-202.75 -284.244)"/><path class="c" d="M29.61,165.422l-2.167-10.829L22.8,159.235a40.3,40.3,0,0,1-2.441-50.347L11.34,100.1a52.138,52.138,0,0,0,2.62,67.971L9.8,172.235l11.024,2.205,11.033,2.207Zm0,0" transform="translate(0 -79.28)"/><path class="d" d="M109.421,9.131l2.247,11.232A40.308,40.308,0,0,0,61.309,22.8l4.618,4.618L55.131,29.6,43.9,31.846,46.084,20.8,48.329,9.818l4.119,4.119a52.277,52.277,0,0,1,68.019-2.621Zm0,0" transform="translate(-34.767)"/><path class="e" d="M279.65,20.364A40.413,40.413,0,0,0,256,12.688V0a53.148,53.148,0,0,1,32.449,11.315L277.4,9.131Zm0,0" transform="translate(-202.75 0)"/></g></svg>