<svg xmlns="http://www.w3.org/2000/svg" width="57" height="57" viewBox="0 0 57 57"><defs><style>.a{fill:#353fd6;}</style></defs><path class="a" d="M219.172,213.086A6.086,6.086,0,1,1,213.086,207,6.086,6.086,0,0,1,219.172,213.086Zm0,0" transform="translate(-184.586 -184.586)"/><path class="a" d="M164.978,139.853a5.9,5.9,0,0,0-1.379-2.181,5.7,5.7,0,0,0-2.12-1.419,9.955,9.955,0,0,0-3.424-.653c-1.945-.091-2.528-.111-7.452-.111s-5.507.019-7.452.11a9.961,9.961,0,0,0-3.424.653,5.693,5.693,0,0,0-2.12,1.419,5.9,5.9,0,0,0-1.38,2.181,10.763,10.763,0,0,0-.635,3.523c-.089,2-.108,2.6-.108,7.666s.019,5.665.108,7.666a10.759,10.759,0,0,0,.635,3.522,5.9,5.9,0,0,0,1.379,2.181,5.7,5.7,0,0,0,2.12,1.419,9.942,9.942,0,0,0,3.424.653c1.944.091,2.527.11,7.451.11s5.508-.019,7.452-.11a9.943,9.943,0,0,0,3.424-.653,6.2,6.2,0,0,0,3.5-3.6,10.768,10.768,0,0,0,.635-3.522c.089-2,.107-2.6.107-7.666s-.019-5.665-.107-7.666A10.746,10.746,0,0,0,164.978,139.853ZM150.6,160.781a9.745,9.745,0,1,1,9.469-9.741A9.608,9.608,0,0,1,150.6,160.781Zm9.843-17.591a2.277,2.277,0,1,1,2.213-2.276A2.245,2.245,0,0,1,160.446,143.191Zm0,0" transform="translate(-122.103 -122.54)"/><path class="a" d="M28.5,0A28.5,28.5,0,1,0,57,28.5,28.5,28.5,0,0,0,28.5,0ZM44.766,35.247a12.007,12.007,0,0,1-.761,3.973,8.368,8.368,0,0,1-4.786,4.786,12.015,12.015,0,0,1-3.972.761c-1.745.08-2.3.1-6.747.1s-5-.019-6.748-.1a12.015,12.015,0,0,1-3.972-.761,8.368,8.368,0,0,1-4.786-4.786,12,12,0,0,1-.761-3.972c-.08-1.746-.1-2.3-.1-6.748s.019-5,.1-6.747a12.008,12.008,0,0,1,.76-3.973,8.374,8.374,0,0,1,4.787-4.786,12.018,12.018,0,0,1,3.973-.761c1.745-.08,2.3-.1,6.747-.1s5,.019,6.747.1a12.02,12.02,0,0,1,3.973.76,8.37,8.37,0,0,1,4.786,4.787,12.005,12.005,0,0,1,.761,3.973c.08,1.745.1,2.3.1,6.747S44.847,33.5,44.766,35.247Zm0,0"/></svg>