<svg xmlns="http://www.w3.org/2000/svg" width="57" height="57" viewBox="0 0 57 57"><defs><style>.a{fill:#353fd6;}.b{fill:#fff;}</style></defs><g transform="translate(0 0.001)"><circle class="a" cx="28.5" cy="28.5" r="28.5" transform="translate(0 -0.001)"/><g transform="translate(13.66 12.104)"><path class="b" d="M59.012,42.682V54.494H52.164V43.474c0-2.767-.989-4.657-3.468-4.657a3.746,3.746,0,0,0-3.513,2.5,4.687,4.687,0,0,0-.227,1.669v11.5H38.108s.092-18.664,0-20.6h6.849v2.919c-.014.023-.033.045-.045.067h.045v-.067a6.8,6.8,0,0,1,6.172-3.4c4.505,0,7.883,2.944,7.883,9.269ZM30.943,23.969a3.569,3.569,0,1,0-.09,7.118H30.9a3.57,3.57,0,1,0,.045-7.118ZM27.475,54.494h6.846V33.9H27.475Z" transform="translate(-27.068 -23.969)"/></g></g></svg>