<svg xmlns="http://www.w3.org/2000/svg" width="89.928" height="106.389" viewBox="0 0 89.928 106.389"><defs><style>.a{fill:#77eda9;}.b{fill:#2ecc71;}.c{fill:#ffcc5b;}.d{fill:#fdbc4b;}.e{fill:#ffdb70;}.f{fill:#fff;opacity:0.2;}.g{fill:#ec9922;}</style></defs><g transform="translate(-39.592)"><path class="a" d="M62.826,221.248,39.592,265.021l21.1-1.949L70.9,281.639l23.234-43.773Z" transform="translate(0 -175.253)"/><g transform="translate(58.786 45.995)"><path class="b" d="M138.621,295.967a2.966,2.966,0,0,0-1.394-3.8l-1.337-.712a2.859,2.859,0,0,1,2.751-5.013l3.779,2.006a2.385,2.385,0,0,0,3.233-1l.093-.18a2.255,2.255,0,0,0-.868-3.18l-11.3-6a2.976,2.976,0,0,1-1.41-3.8,2.866,2.866,0,0,1,3.938-1.317l10.484,5.565a2.412,2.412,0,0,0,3.25-1l.06-.153.017-.033a2.511,2.511,0,0,0-1.034-3.416L143,270.814A2.976,2.976,0,0,1,141.6,267a2.878,2.878,0,0,1,3.938-1.317l6.5,3.449a2.425,2.425,0,0,0,3.293-1.118.153.153,0,0,0,.017-.033.156.156,0,0,0,.017-.033,2.422,2.422,0,0,0-.921-3.353l-7.008-3.719a2.969,2.969,0,0,1-1.394-3.792,2.866,2.866,0,0,1,3.938-1.317l17.29,9.177-23.234,43.773-6.4-11.638A2.721,2.721,0,0,0,138.621,295.967Z" transform="translate(-131.92 -248.322)"/><path class="b" d="M241.11,221.248l23.234,43.773-21.1-1.949-10.211,18.567L209.8,237.866Z" transform="translate(-193.61 -221.248)"/></g><path class="a" d="M238.461,295.98a2.966,2.966,0,0,1,1.394-3.8l1.337-.712a2.859,2.859,0,0,0-2.751-5.013l-3.779,2.006a2.385,2.385,0,0,1-3.233-1l-.093-.18a2.255,2.255,0,0,1,.868-3.18l11.306-6a2.976,2.976,0,0,0,1.41-3.8,2.866,2.866,0,0,0-3.938-1.317L230.5,278.544a2.412,2.412,0,0,1-3.25-1l-.06-.153-.017-.033a2.511,2.511,0,0,1,1.034-3.416l5.881-3.12a2.976,2.976,0,0,0,1.4-3.819,2.878,2.878,0,0,0-3.938-1.317l-6.5,3.456a2.425,2.425,0,0,1-3.293-1.118,101.316,101.316,0,0,1-.033-.067,2.422,2.422,0,0,1,.921-3.353l7.008-3.719a2.969,2.969,0,0,0,1.394-3.792,2.866,2.866,0,0,0-3.938-1.317l-17.29,9.177,23.234,43.773,6.4-11.638A2.768,2.768,0,0,1,238.461,295.98Z" transform="translate(-134.836 -202.34)"/><circle class="c" cx="38.82" cy="38.82" r="38.82" transform="translate(45.736 0)"/><path class="d" d="M113.661,45.469H89.06a3.5,3.5,0,0,1-3.483-3.483l.027-.239v-.053a3.636,3.636,0,0,1,3.642-3.669H106.3a4.313,4.313,0,0,0,4.387-3.935,4.169,4.169,0,0,0-4.148-4.361H88.474a3.516,3.516,0,0,1-3.456-3.669v-.106a3.516,3.516,0,0,1,3.456-3.669h18.9a4.3,4.3,0,0,0,4.361-3.908,4.154,4.154,0,0,0-4.148-4.361H93.747a38.815,38.815,0,0,0,0,71.8h17.572a4.3,4.3,0,0,0,4.361-3.908,4.151,4.151,0,0,0-4.148-4.357l-19.991,0a4.136,4.136,0,0,1-4.131-4.361,4.3,4.3,0,0,1,4.364-3.915h7.75a4.142,4.142,0,0,0-.12-8.282H87.66A3.455,3.455,0,0,1,84.2,57.51v-.293a3.271,3.271,0,0,1,3.27-3.483h25.948a4.31,4.31,0,0,0,4.387-3.908A4.155,4.155,0,0,0,113.661,45.469Z" transform="translate(-23.839 -11.102)"/><path class="e" d="M150.295,108.858a27.709,27.709,0,1,1,27.711-27.707A27.743,27.743,0,0,1,150.295,108.858Z" transform="translate(-65.739 -42.33)"/><path class="f" d="M260.943,81.455a27.724,27.724,0,0,0-26.121-27.631h-2.581a3.284,3.284,0,0,0-3.326,2.98,3.17,3.17,0,0,0,3.163,3.326l15.247,0a3.153,3.153,0,0,1,3.15,3.326,3.276,3.276,0,0,1-3.33,2.987h-5.911a3.159,3.159,0,0,0,.09,6.316h8.961a2.634,2.634,0,0,1,2.634,2.654v.22a2.493,2.493,0,0,1-2.495,2.654H230.638a3.289,3.289,0,0,0-3.346,2.98,3.17,3.17,0,0,0,3.163,3.326h18.76a2.664,2.664,0,0,1,2.654,2.654l-.02.183v.04a2.774,2.774,0,0,1-2.777,2.8H236.066a3.291,3.291,0,0,0-3.346,3,3.181,3.181,0,0,0,3.163,3.326h13.774a2.681,2.681,0,0,1,2.634,2.8v.08a2.681,2.681,0,0,1-2.634,2.8H235.245a3.284,3.284,0,0,0-3.326,2.98,3.168,3.168,0,0,0,3.163,3.326h3.8A27.756,27.756,0,0,0,260.943,81.455Z" transform="translate(-148.677 -42.635)"/><path class="g" d="M194.684,103.666H181.206l-4.168-12.819a1.789,1.789,0,0,0-3.4,0l-4.164,12.819H155.993a1.789,1.789,0,0,0-1.051,3.236l10.9,7.923-4.164,12.819a1.789,1.789,0,0,0,2.754,2l10.9-7.923,10.9,7.923a1.789,1.789,0,0,0,2.754-2l-4.164-12.819,10.9-7.923A1.789,1.789,0,0,0,194.684,103.666Z" transform="translate(-90.782 -70.983)"/></g></svg>