<svg xmlns="http://www.w3.org/2000/svg" width="98.483" height="103.857" viewBox="0 0 98.483 103.857"><defs><style>.a{fill:#ebebeb;}.b{fill:#ffcc5b;}.c{fill:#9e9e9e;}.d{fill:#ffdb70;}.e{fill:#ffe28d;}</style></defs><g transform="translate(-0.444 -0.054)"><path class="a" d="M194.1,403.051a5.369,5.369,0,0,0,5.369,5.369h7.159A5.369,5.369,0,0,0,212,403.051V392.313H194.1Zm0,0" transform="translate(-150.656 -304.509)"/><path class="b" d="M154.519,72.526a32.214,32.214,0,1,0-49.595,27.125,10.263,10.263,0,0,1,4.854,8.594v7.232a5.369,5.369,0,0,0,5.369,5.369h14.317a5.369,5.369,0,0,0,5.369-5.369v-7.083a10.543,10.543,0,0,1,4.957-8.809,32.186,32.186,0,0,0,14.729-27.059Zm0,0" transform="translate(-69.908 -31.253)"/><path class="c" d="M194.1,416.313H212v3.579H194.1Zm0,0" transform="translate(-150.656 -323.14)"/><g transform="translate(0.444 0.054)"><path class="d" d="M226.1,352.313h3.579v5.369H226.1Zm0,0" transform="translate(-175.942 -273.511)"/><path class="e" d="M148.936,144.747h-3.579a11.428,11.428,0,0,0-7.338-10.667,25.054,25.054,0,0,1-4.226-44.536l1.9,3.028a21.476,21.476,0,0,0,3.619,38.178,14.975,14.975,0,0,1,9.625,14Zm0,0" transform="translate(-95.193 -69.525)"/><path class="b" d="M387.895,296.313h8.948a1.79,1.79,0,0,1,0,3.579h-8.948a1.79,1.79,0,1,1,0-3.579Zm0,0" transform="translate(-300.149 -230.039)"/><path class="b" d="M376.665,342.08a1.789,1.789,0,0,1,2.52-.23l7.989,6.656a1.79,1.79,0,1,1-2.291,2.75l-7.989-6.656A1.789,1.789,0,0,1,376.665,342.08Zm0,0" transform="translate(-292.499 -265.067)"/><path class="b" d="M339.895,360.313a1.789,1.789,0,0,1,1.79,1.79v8.948a1.79,1.79,0,0,1-3.579,0V362.1A1.789,1.789,0,0,1,339.895,360.313Zm0,0" transform="translate(-262.887 -279.721)"/><path class="b" d="M3.222,125.015l10.844-2.709a1.789,1.789,0,1,1,.867,3.471L4.089,128.486a1.789,1.789,0,1,1-.867-3.471Zm0,0" transform="translate(-1.865 -94.916)"/><path class="b" d="M16.945,45.718a1.789,1.789,0,0,1,2.5-.415l9.614,6.868a1.788,1.788,0,1,1-2.079,2.911l-9.614-6.868A1.789,1.789,0,0,1,16.945,45.718Zm0,0" transform="translate(-13.313 -34.922)"/><path class="b" d="M85.076.11A1.789,1.789,0,0,1,87.253,1.4l2.774,10.849a1.79,1.79,0,1,1-3.467.887L83.786,2.287A1.79,1.79,0,0,1,85.076.11Zm0,0" transform="translate(-65.416 -0.054)"/></g></g></svg>