<svg xmlns="http://www.w3.org/2000/svg" width="106.5" height="95.483" viewBox="0 0 106.5 95.483"><defs><style>.a{fill:#eff2fa;}.b{fill:#ffb900;}.c{fill:#e4eaf6;}.d{fill:#4d5cf7;}.e{fill:#c7cfe2;}.f{fill:#afb9d2;}</style></defs><g transform="translate(0 -26.483)"><path class="a" d="M102.828,135.948H3.672A3.672,3.672,0,0,1,0,132.276V47.81a3.672,3.672,0,0,1,3.672-3.672h99.155A3.672,3.672,0,0,1,106.5,47.81v84.466A3.673,3.673,0,0,1,102.828,135.948Z" transform="translate(0 -13.983)"/><path class="b" d="M106.5,62.5H0V47.81a3.672,3.672,0,0,1,3.672-3.672h99.155A3.672,3.672,0,0,1,106.5,47.81Z" transform="translate(0 -13.983)"/><rect class="c" width="106.5" height="3.672" transform="translate(0 48.517)"/><circle class="d" cx="5.509" cy="5.509" r="5.509" transform="translate(10.099 32.91)"/><path class="e" d="M64.547,41.173h0a2.754,2.754,0,0,1-2.754-2.754V29.237a2.754,2.754,0,0,1,2.754-2.754h0A2.754,2.754,0,0,1,67.3,29.237v9.181A2.754,2.754,0,0,1,64.547,41.173Z" transform="translate(-48.94)"/><path class="f" d="M64.547,60.133a2.754,2.754,0,0,1-2.754-2.754v5.509a2.754,2.754,0,0,0,5.508,0V57.379A2.754,2.754,0,0,1,64.547,60.133Z" transform="translate(-48.94 -24.469)"/><circle class="d" cx="5.509" cy="5.509" r="5.509" transform="translate(85.384 32.91)"/><path class="e" d="M426.479,41.173h0a2.754,2.754,0,0,1-2.754-2.754V29.237a2.754,2.754,0,0,1,2.754-2.754h0a2.754,2.754,0,0,1,2.754,2.754v9.181A2.754,2.754,0,0,1,426.479,41.173Z" transform="translate(-335.587)"/><path class="f" d="M426.479,60.133a2.754,2.754,0,0,1-2.754-2.754v5.509a2.754,2.754,0,1,0,5.508,0V57.379A2.754,2.754,0,0,1,426.479,60.133Z" transform="translate(-335.587 -24.469)"/><g transform="translate(26.763 63.49)"><path class="d" d="M150.8,226.651a.192.192,0,0,1-.028-.371,10.5,10.5,0,0,0,6.941-10.2c0-6.772-5.891-11.687-14.006-11.687-7.024,0-12.383,3.673-13.986,9.587a2.46,2.46,0,0,0,.42,2.159,2.4,2.4,0,0,0,1.922.95,2.429,2.429,0,0,0,2.342-1.83c1.009-3.916,4.5-6.348,9.117-6.348,5.543,0,9.124,3.018,9.124,7.687,0,4.724-3.827,8.023-9.3,8.023h-3.358a2.2,2.2,0,1,0,0,4.4h3.539c6.878,0,10.984,3.216,10.984,8.6,0,4.95-4.452,8.542-10.588,8.542-5.292,0-9.388-2.578-10.435-6.57a2.485,2.485,0,0,0-2.373-1.881,2.425,2.425,0,0,0-1.928.945,2.487,2.487,0,0,0-.44,2.159c1.549,5.992,7.517,9.864,15.206,9.864,8.925,0,15.654-5.667,15.654-13.182C159.606,231.953,156.23,227.905,150.8,226.651Z" transform="translate(-128.665 -204.395)"/><path class="d" d="M307.975,207.48a6.113,6.113,0,0,0-3.442,1.068c-1.285.877-3.155,2.177-4.966,3.435s-3.552,2.468-4.591,3.174a2.294,2.294,0,0,0,.216,3.925,2.247,2.247,0,0,0,2.352-.13c1.833-1.246,6.731-4.691,8.035-5.609a.206.206,0,0,1,.323.176v36.465a2.441,2.441,0,0,0,4.882,0V210.265A2.793,2.793,0,0,0,307.975,207.48Z" transform="translate(-259.586 -206.838)"/></g></g></svg>